<?xml version="1.0" standalone="no"?>
<!DOCTYPE svg PUBLIC "-//W3C//DTD SVG 20010904//EN"
 "http://www.w3.org/TR/2001/REC-SVG-20010904/DTD/svg10.dtd">
<svg version="1.0" xmlns="http://www.w3.org/2000/svg"
 width="512.000000pt" height="512.000000pt" viewBox="0 0 512.000000 512.000000"
 preserveAspectRatio="xMidYMid meet">
<metadata>
Created by potrace 1.11, written by Peter Selinger 2001-2013
</metadata>
<g transform="translate(0.000000,512.000000) scale(0.100000,-0.100000)"
fill="#000000" stroke="none">
<path d="M2100 4870 c-168 -35 -279 -63 -397 -101 -81 -26 -94 -33 -99 -56 -4
-14 1 -126 10 -247 25 -335 43 -279 -145 -442 -266 -230 -349 -294 -381 -294
-15 0 -132 20 -258 45 -126 25 -241 45 -255 45 -33 0 -63 -47 -160 -246 -91
-186 -165 -364 -165 -398 0 -31 30 -55 257 -210 94 -65 177 -124 184 -132 13
-16 28 -293 29 -534 0 -116 -3 -150 -16 -168 -8 -12 -100 -94 -203 -181 -104
-88 -191 -167 -194 -176 -4 -8 1 -37 9 -63 39 -114 228 -491 281 -561 24 -32
28 -33 72 -28 25 4 125 31 221 62 96 30 199 60 230 67 l55 11 215 -158 c263
-193 309 -231 321 -264 6 -13 14 -139 18 -280 8 -240 10 -256 29 -271 40 -33
474 -135 623 -147 75 -6 77 -5 94 20 9 15 48 106 87 204 104 268 117 292 147
300 14 3 141 37 281 75 140 37 279 71 307 75 62 7 56 11 296 -169 178 -133
195 -143 229 -135 65 17 522 396 534 443 8 33 -7 66 -127 270 -50 85 -99 174
-109 198 l-19 42 113 261 c138 314 150 339 179 358 13 8 128 42 256 75 248 64
265 70 276 97 4 10 10 113 12 228 6 239 -8 461 -30 483 -14 13 -90 28 -380 72
-95 14 -155 28 -167 39 -21 17 -279 502 -301 564 -17 47 -10 68 103 315 84
185 100 241 77 268 -16 20 -213 184 -298 249 -121 92 -235 165 -257 165 -15 0
-63 -37 -139 -107 -219 -203 -279 -253 -303 -253 -24 0 -448 80 -567 107 -50
11 -77 23 -95 43 -14 15 -63 101 -109 191 -46 90 -99 190 -118 222 -33 55 -36
57 -76 56 -23 0 -103 -13 -177 -29z m205 -1499 c148 -38 224 -67 249 -95 16
-18 18 -34 14 -123 -2 -60 -8 -107 -15 -114 -9 -9 -41 4 -135 59 -142 81 -215
108 -341 123 -315 38 -545 -118 -629 -428 -30 -112 -30 -354 0 -466 59 -217
195 -362 388 -412 77 -20 246 -19 337 1 100 23 144 44 251 119 52 36 101 65
109 65 18 0 24 -25 32 -140 5 -63 3 -89 -7 -102 -25 -31 -240 -108 -375 -134
-87 -16 -270 -18 -363 -3 -360 57 -582 316 -619 720 -40 435 127 772 451 907
122 51 193 62 373 58 140 -3 175 -7 280 -35z m1441 30 c113 -5 167 -11 178
-20 24 -20 19 -179 -6 -194 -11 -8 -132 -8 -397 0 -209 6 -392 8 -405 6 -14
-3 -27 -14 -30 -26 -9 -35 -7 -421 3 -436 11 -18 65 -18 433 -7 332 10 303 20
303 -101 0 -116 25 -109 -369 -95 -184 7 -342 9 -351 5 -17 -6 -17 -32 -11
-398 7 -364 6 -392 -10 -406 -22 -18 -187 -20 -206 -1 -33 33 -34 1620 0 1654
22 22 545 33 868 19z"/>
</g>
</svg>
