<?xml version="1.0" standalone="no"?>
<!DOCTYPE svg PUBLIC "-//W3C//DTD SVG 20010904//EN"
 "http://www.w3.org/TR/2001/REC-SVG-20010904/DTD/svg10.dtd">
<svg version="1.0" xmlns="http://www.w3.org/2000/svg"
 width="512.000000pt" height="512.000000pt" viewBox="0 0 512.000000 512.000000"
 preserveAspectRatio="xMidYMid meet">
<metadata>
Created by potrace 1.11, written by Peter Selinger 2001-2013
</metadata>
<g transform="translate(0.000000,512.000000) scale(0.100000,-0.100000)"
fill="#000000" stroke="none">
<path d="M1846 4391 c-2 -3 -23 -76 -46 -162 l-43 -156 -141 -6 c-78 -3 -148
-8 -157 -12 -17 -6 -17 -5 -90 185 -23 58 -42 106 -43 107 -2 2 -36 -8 -77
-22 l-74 -25 -124 25 c-68 14 -126 24 -127 22 -2 -1 7 -56 20 -122 13 -66 26
-136 30 -157 l7 -36 117 -28 c64 -15 121 -31 125 -34 4 -4 -14 -24 -40 -45
-26 -22 -82 -70 -124 -107 l-76 -68 -126 95 c-70 52 -131 95 -136 95 -5 0 -31
-27 -58 -60 -26 -33 -50 -60 -53 -60 -3 0 -54 13 -114 30 -61 16 -112 28 -114
26 -2 -2 41 -55 96 -117 l100 -114 118 -33 c65 -18 121 -35 123 -38 3 -2 -24
-77 -60 -165 l-64 -161 -161 6 -161 6 -17 -64 c-22 -89 -21 -91 24 -105 l40
-12 0 -150 0 -150 117 -55 c69 -32 113 -58 107 -63 -5 -5 -69 -44 -142 -86
l-134 -78 -120 56 c-66 31 -118 51 -115 44 3 -7 13 -40 22 -74 l17 -61 122
-58 121 -57 88 30 88 31 33 -50 34 -50 -90 -139 c-50 -77 -89 -141 -87 -142 2
-2 29 -23 59 -48 44 -37 274 -169 293 -169 3 0 53 56 112 125 58 69 110 125
116 125 5 0 9 -10 9 -22 0 -24 -16 -173 -25 -245 l-6 -42 128 -64 c126 -63
254 -101 272 -81 5 5 27 76 49 158 23 81 42 149 44 151 2 1 26 5 54 9 l51 6
13 -46 c11 -40 19 -48 59 -67 43 -21 46 -25 68 -98 l23 -76 186 -88 185 -89
76 23 c66 19 78 20 90 8 13 -12 0 -38 -92 -188 -59 -96 -107 -177 -108 -180
-5 -16 204 -162 343 -241 l155 -88 30 32 c17 18 50 56 73 83 l44 50 -6 -80 -6
-80 199 -102 198 -103 100 0 99 0 39 178 c21 97 42 185 47 195 13 26 28 20 28
-11 0 -27 8 -32 211 -121 l211 -93 61 26 c34 15 68 30 75 35 11 7 9 41 -13
190 -14 100 -25 186 -23 190 2 4 51 50 109 103 l105 96 152 -62 151 -63 56 79
55 79 -94 121 c-95 120 -95 120 -82 152 8 17 40 99 72 183 l59 152 150 3 150
3 11 52 c6 28 15 72 18 97 l7 45 -133 43 -133 42 0 195 0 195 141 88 142 88
-20 88 c-10 48 -22 90 -26 93 -4 3 -93 25 -197 48 l-190 43 -31 53 -31 52 102
174 102 173 -56 63 c-31 34 -60 62 -66 62 -8 0 -142 -160 -227 -271 l-16 -22
-43 38 c-23 21 -84 59 -136 83 -68 32 -93 49 -93 63 0 10 9 105 21 210 11 106
18 194 15 197 -2 2 -36 13 -74 22 l-70 18 -58 -202 -58 -202 -70 -7 c-39 -3
-114 -17 -166 -31 -52 -13 -102 -25 -111 -25 -12 0 -32 51 -79 200 -37 116
-69 199 -75 196 -5 -2 -43 -19 -82 -37 l-72 -33 -203 37 c-111 20 -203 35
-205 33 -5 -5 55 -387 62 -394 3 -3 -9 -14 -26 -24 -23 -14 -34 -16 -44 -8 -7
6 -61 24 -120 40 -80 21 -114 26 -132 19 -37 -14 -37 -13 -77 47 l-37 56 74
121 c40 67 80 132 88 144 13 21 10 26 -31 68 -24 25 -47 45 -50 45 -4 0 -53
-54 -109 -119 l-102 -119 -75 44 c-41 24 -101 58 -134 74 -70 35 -67 24 -45
205 23 181 26 168 -50 187 -36 8 -67 13 -69 9z m400 -815 c27 -8 110 -31 184
-52 74 -20 137 -38 139 -40 2 -2 -23 -40 -55 -86 -31 -46 -58 -84 -60 -86 -2
-4 -385 106 -391 112 -5 5 118 165 128 165 3 1 28 -5 55 -13z m-271 -421 c151
-47 279 -85 284 -85 5 0 14 14 21 31 8 17 18 28 26 25 37 -14 347 -96 364 -96
11 0 20 -6 20 -13 0 -7 -28 -80 -63 -162 -35 -83 -72 -172 -83 -200 l-21 -50
-139 -2 c-76 -1 -164 -2 -195 -2 l-56 -1 -19 -90 c-10 -49 -21 -95 -25 -102
-5 -8 -59 8 -191 59 -198 76 -188 68 -174 143 l6 35 -122 55 c-123 55 -123 55
-150 109 -59 116 -17 265 105 371 34 30 94 58 124 60 7 0 136 -38 288 -85z
m1934 -616 c124 -39 245 -78 269 -86 95 -33 153 -114 160 -227 11 -185 -85
-364 -225 -416 -79 -29 -134 -26 -233 16 -47 19 -165 67 -263 107 l-177 71
-25 50 c-78 161 -48 346 75 466 47 46 129 88 174 89 10 1 120 -31 245 -70z
m-1819 -462 l0 -34 183 -77 c100 -43 185 -81 190 -85 4 -4 -72 -58 -169 -120
l-177 -113 -156 73 c-86 40 -168 81 -184 90 l-27 16 135 83 c135 83 135 83
135 121 0 29 6 42 28 58 37 28 42 26 42 -12z"/>
</g>
</svg>
